<svg width="135" height="17" fill="none" xmlns="http://www.w3.org/2000/svg"><path d="M2.618 13H.957V5.604h1.661V13ZM.854 3.683c0-.256.08-.468.24-.636.164-.169.396-.253.697-.253.3 0 .533.084.697.253.164.168.246.38.246.636 0 .25-.082.46-.246.629-.164.164-.396.246-.697.246-.3 0-.533-.082-.697-.246a.88.88 0 0 1-.24-.63Zm5.4 1.92.048.855c.547-.66 1.265-.991 2.154-.991 1.54 0 2.324.882 2.351 2.645V13h-1.66V8.208c0-.47-.103-.816-.308-1.04-.2-.227-.531-.34-.992-.34-.67 0-1.169.302-1.497.908V13H4.69V5.604h1.565ZM13.372 13V6.834h-1.128v-1.23h1.127v-.677c0-.82.228-1.454.684-1.9.456-.447 1.094-.67 1.914-.67.292 0 .602.04.93.122l-.041 1.3a3.272 3.272 0 0 0-.636-.055c-.793 0-1.19.408-1.19 1.223v.657h1.505v1.23h-1.504V13H13.37Zm4.347-3.767c0-.724.143-1.376.43-1.955.288-.583.691-1.03 1.21-1.34.52-.314 1.117-.471 1.792-.471.998 0 1.806.321 2.426.964.625.642.962 1.494 1.012 2.556l.007.39c0 .73-.141 1.38-.424 1.955a3.08 3.08 0 0 1-1.203 1.333c-.52.315-1.121.472-1.805.472-1.043 0-1.88-.347-2.509-1.04-.624-.697-.936-1.624-.936-2.782v-.082Zm1.661.144c0 .761.157 1.358.472 1.791.314.428.752.643 1.312.643s.996-.22 1.306-.657c.314-.437.472-1.078.472-1.92 0-.748-.162-1.34-.486-1.778-.319-.437-.754-.656-1.305-.656-.543 0-.973.216-1.292.65-.32.428-.479 1.07-.479 1.927Zm17.951.082c-.055 1.14-.335 2.04-.84 2.7-.507.656-1.193.985-2.059.985-.824 0-1.376-.351-1.654-1.053a2.397 2.397 0 0 1-.813.78c-.306.172-.627.259-.964.259-.666 0-1.171-.274-1.518-.82-.341-.547-.471-1.279-.39-2.195a5.94 5.94 0 0 1 .54-2.01c.292-.597.66-1.057 1.101-1.38.447-.329.92-.493 1.422-.493.383 0 .72.048 1.012.144.296.096.642.294 1.039.595l-.356 3.848c-.086.903.174 1.354.78 1.354.465 0 .845-.248 1.141-.745.301-.502.465-1.149.493-1.942.077-1.681-.249-2.969-.978-3.862-.725-.893-1.816-1.34-3.274-1.34-.894 0-1.687.223-2.38.67-.688.447-1.234 1.094-1.64 1.942-.405.843-.629 1.804-.67 2.884-.055 1.099.075 2.046.39 2.844.319.793.804 1.397 1.456 1.811.656.415 1.456.623 2.4.623.382 0 .78-.046 1.196-.137.419-.091.774-.214 1.066-.37l.26.937c-.278.183-.654.328-1.128.438a6.01 6.01 0 0 1-1.422.17c-1.158 0-2.151-.245-2.98-.738-.83-.487-1.452-1.196-1.867-2.126-.428-.961-.617-2.112-.567-3.452.054-1.248.335-2.37.84-3.363.506-.998 1.197-1.773 2.072-2.324.88-.552 1.88-.827 3-.827 1.136 0 2.111.25 2.927.752.82.496 1.433 1.214 1.839 2.153.405.934.58 2.03.526 3.288Zm-6.897.656c-.06.62-.005 1.092.164 1.415.168.32.437.479.806.479.246 0 .479-.107.697-.322.22-.218.397-.517.534-.895l.307-3.37a1.862 1.862 0 0 0-.663-.13c-.506 0-.918.24-1.237.718-.32.474-.522 1.176-.608 2.105Zm8.34-.868c0-1.14.263-2.053.792-2.741.529-.693 1.237-1.04 2.126-1.04.784 0 1.417.274 1.9.821V2.5h1.661V13H43.75l-.082-.766c-.497.602-1.16.903-1.99.903-.865 0-1.567-.349-2.105-1.046-.533-.697-.8-1.645-.8-2.844Zm1.66.144c0 .752.144 1.34.43 1.763.293.42.705.63 1.238.63.68 0 1.176-.304 1.49-.91V7.716c-.305-.593-.797-.889-1.476-.889-.538 0-.953.214-1.244.643-.292.424-.438 1.064-.438 1.92Zm10.09 3.746c-1.053 0-1.908-.33-2.564-.992-.651-.665-.977-1.549-.977-2.652v-.205c0-.738.141-1.397.424-1.976a3.27 3.27 0 0 1 1.203-1.36 3.172 3.172 0 0 1 1.722-.485c1.008 0 1.784.321 2.331.964.552.642.828 1.551.828 2.727v.67h-4.833c.05.61.253 1.094.608 1.45.36.355.811.532 1.353.532.761 0 1.381-.307 1.86-.922l.895.854a3.012 3.012 0 0 1-1.19 1.032 3.72 3.72 0 0 1-1.66.363ZM50.324 6.8c-.455 0-.824.16-1.107.478-.278.32-.456.764-.533 1.333h3.165v-.123c-.036-.556-.185-.975-.444-1.258-.26-.287-.62-.43-1.08-.43Zm7.253 4.095 1.566-5.291h1.715L58.295 13h-1.442l-2.584-7.396h1.722l1.586 5.29Zm8.75.095a.751.751 0 0 0-.37-.677c-.24-.155-.644-.291-1.21-.41-.564-.118-1.036-.269-1.414-.45-.83-.402-1.244-.983-1.244-1.744 0-.638.269-1.171.806-1.6.538-.428 1.222-.642 2.051-.642.884 0 1.597.219 2.14.656.547.438.82 1.005.82 1.702h-1.661c0-.319-.119-.583-.356-.793-.237-.214-.551-.321-.943-.321-.364 0-.663.084-.895.253a.8.8 0 0 0-.342.677c0 .255.107.453.321.594.214.142.647.285 1.299.431.652.141 1.162.312 1.531.513.374.196.65.433.827.71.183.279.274.616.274 1.012 0 .666-.276 1.206-.827 1.62-.552.41-1.274.616-2.167.616-.607 0-1.147-.11-1.62-.328-.474-.22-.844-.52-1.108-.903a2.136 2.136 0 0 1-.396-1.237h1.613c.023.392.17.695.444.91.274.209.636.314 1.087.314.438 0 .77-.083.998-.247a.781.781 0 0 0 .342-.656Zm5.448-7.184v1.798h1.305v1.23h-1.305v4.129c0 .282.055.488.164.615.114.123.314.185.602.185.19 0 .385-.023.58-.069v1.285a4.092 4.092 0 0 1-1.093.158c-1.276 0-1.914-.704-1.914-2.113v-4.19h-1.217v-1.23h1.217V3.806h1.66Zm7.341 8.47c-.487.574-1.18.86-2.078.86-.802 0-1.41-.234-1.825-.703-.41-.47-.615-1.149-.615-2.037V5.604h1.661v4.771c0 .939.39 1.408 1.169 1.408.807 0 1.351-.29 1.634-.868V5.604h1.66V13h-1.565l-.04-.725Zm3.268-3.029c0-1.14.264-2.053.793-2.741.528-.693 1.237-1.04 2.126-1.04.784 0 1.417.274 1.9.821V2.5h1.661V13H87.36l-.082-.766c-.497.602-1.16.903-1.989.903-.866 0-1.568-.349-2.106-1.046-.533-.697-.8-1.645-.8-2.844Zm1.66.144c0 .752.144 1.34.431 1.763.292.42.705.63 1.238.63.679 0 1.176-.304 1.49-.91V7.716c-.305-.593-.797-.889-1.477-.889-.537 0-.952.214-1.244.643-.291.424-.437 1.064-.437 1.92Zm8.6 3.609h-1.661V5.604h1.661V13ZM90.88 3.683c0-.256.08-.468.24-.636.164-.169.396-.253.697-.253.3 0 .533.084.697.253.164.168.246.38.246.636 0 .25-.082.46-.246.629-.164.164-.396.246-.697.246-.3 0-.533-.082-.697-.246a.88.88 0 0 1-.24-.63Zm3.548 5.55c0-.724.144-1.376.43-1.955a3.12 3.12 0 0 1 1.21-1.34c.52-.314 1.117-.471 1.792-.471.998 0 1.807.321 2.426.964.625.642.962 1.494 1.012 2.556l.007.39c0 .73-.141 1.38-.424 1.955a3.08 3.08 0 0 1-1.203 1.333c-.52.315-1.121.472-1.805.472-1.043 0-1.88-.347-2.508-1.04-.625-.697-.937-1.624-.937-2.782v-.082Zm1.661.144c0 .761.157 1.358.472 1.791.314.428.752.643 1.312.643s.996-.22 1.306-.657c.314-.437.472-1.078.472-1.92 0-.748-.162-1.34-.486-1.778-.319-.437-.754-.656-1.305-.656-.543 0-.973.216-1.292.65-.32.428-.479 1.07-.479 1.927Zm7.936 1.873c.31 0 .55.089.718.267a.9.9 0 0 1 .253.656c0 .26-.084.476-.253.65-.168.168-.408.252-.718.252-.296 0-.53-.084-.704-.253a.867.867 0 0 1-.259-.65.9.9 0 0 1 .253-.655c.168-.178.405-.267.71-.267Zm6.194.56c.414 0 .758-.12 1.032-.362.273-.241.419-.54.437-.895h1.566c-.019.46-.162.89-.431 1.292a2.832 2.832 0 0 1-1.094.943c-.46.232-.957.349-1.49.349-1.034 0-1.855-.335-2.461-1.005-.606-.67-.909-1.595-.909-2.776v-.17c0-1.126.301-2.026.902-2.7.602-.68 1.422-1.02 2.461-1.02.88 0 1.595.258 2.147.773.556.51.847 1.183.875 2.017h-1.566c-.018-.424-.164-.773-.437-1.046-.269-.273-.613-.41-1.032-.41-.538 0-.953.196-1.245.588-.291.387-.439.977-.444 1.77v.267c0 .802.144 1.401.431 1.798.291.392.711.587 1.258.587Zm4.258-2.577c0-.724.144-1.376.431-1.955.287-.583.69-1.03 1.21-1.34.519-.314 1.116-.471 1.791-.471.998 0 1.807.321 2.426.964.625.642.962 1.494 1.012 2.556l.007.39c0 .73-.141 1.38-.424 1.955a3.08 3.08 0 0 1-1.203 1.333c-.519.315-1.121.472-1.805.472-1.043 0-1.879-.347-2.508-1.04-.625-.697-.937-1.624-.937-2.782v-.082Zm1.661.144c0 .761.157 1.358.472 1.791.314.428.752.643 1.312.643.561 0 .996-.22 1.306-.657.315-.437.472-1.078.472-1.92 0-.748-.162-1.34-.486-1.778-.319-.437-.754-.656-1.305-.656-.543 0-.973.216-1.292.65-.319.428-.479 1.07-.479 1.927Zm8.463-3.773.048.772c.519-.606 1.23-.91 2.132-.91.989 0 1.666.379 2.031 1.136.538-.757 1.294-1.135 2.269-1.135.816 0 1.422.225 1.819.677.401.45.606 1.116.615 1.996V13h-1.661V8.187c0-.469-.103-.813-.308-1.032-.205-.218-.544-.328-1.018-.328-.379 0-.689.103-.93.308-.237.2-.403.465-.499.793l.007 5.072h-1.661V8.133c-.023-.87-.468-1.306-1.333-1.306-.666 0-1.137.271-1.415.814V13h-1.662V5.604h1.566Z" fill="#757575"/><path d="M2.611 5.604V13H.957V5.604h1.654ZM.848 3.662c0-.25.082-.458.246-.622.168-.169.4-.253.697-.253.292 0 .522.084.69.253a.831.831 0 0 1 .253.622.823.823 0 0 1-.253.615c-.168.164-.398.246-.69.246-.296 0-.529-.082-.697-.246a.835.835 0 0 1-.246-.615Zm5.482 3.52V13H4.682V5.604h1.552l.096 1.579Zm-.294 1.846-.533-.007A4.81 4.81 0 0 1 5.72 7.58c.146-.437.347-.813.602-1.128.26-.314.57-.556.93-.724a2.74 2.74 0 0 1 1.203-.26c.355 0 .677.05.964.15.291.096.54.253.745.472.21.219.369.503.478.854.11.347.164.773.164 1.279V13H9.153V8.215c0-.356-.052-.636-.157-.841a.88.88 0 0 0-.445-.444c-.19-.091-.43-.137-.717-.137-.283 0-.536.06-.76.178-.222.118-.412.28-.566.485-.15.205-.267.442-.35.711a2.937 2.937 0 0 0-.122.861ZM14.998 13H13.35V4.893c0-.552.103-1.014.308-1.388.21-.378.508-.663.895-.855.387-.196.845-.294 1.374-.294.164 0 .326.012.486.035.159.018.314.047.464.088l-.04 1.272a1.89 1.89 0 0 0-.301-.048 3.964 3.964 0 0 0-.342-.014c-.25 0-.467.048-.65.144a.947.947 0 0 0-.41.403 1.427 1.427 0 0 0-.136.657V13Zm1.524-7.396v1.203h-4.307V5.604h4.307Zm1.162 3.78v-.157c0-.534.077-1.028.232-1.484.155-.46.378-.859.67-1.196a3.023 3.023 0 0 1 1.08-.793 3.516 3.516 0 0 1 1.45-.287c.542 0 1.025.096 1.449.287.428.187.79.451 1.086.793.297.337.522.736.677 1.196.155.456.233.95.233 1.484v.157c0 .533-.078 1.027-.233 1.483-.155.456-.38.855-.677 1.196a3.135 3.135 0 0 1-1.08.793 3.54 3.54 0 0 1-1.442.28 3.607 3.607 0 0 1-1.456-.28 3.137 3.137 0 0 1-1.08-.793 3.55 3.55 0 0 1-.677-1.196 4.579 4.579 0 0 1-.232-1.483Zm1.647-.157v.157c0 .332.034.647.103.943.068.296.175.556.321.78.146.223.333.398.56.526.229.127.5.191.814.191.305 0 .57-.064.793-.191.228-.128.415-.303.56-.527a2.4 2.4 0 0 0 .322-.779c.073-.296.11-.61.11-.943v-.157c0-.329-.037-.638-.11-.93a2.389 2.389 0 0 0-.328-.786 1.568 1.568 0 0 0-.56-.533 1.542 1.542 0 0 0-.8-.199c-.31 0-.58.066-.807.199a1.587 1.587 0 0 0-.554.533 2.48 2.48 0 0 0-.321.786 4.062 4.062 0 0 0-.103.93Zm17.958.218a6.242 6.242 0 0 1-.198 1.32 4.088 4.088 0 0 1-.52 1.196c-.228.36-.522.647-.882.861-.36.215-.793.322-1.298.322-.306 0-.577-.053-.814-.158a1.611 1.611 0 0 1-.595-.465 1.9 1.9 0 0 1-.335-.724 2.968 2.968 0 0 1-.054-.957l.348-3.876h1.197l-.342 3.876a2.35 2.35 0 0 0 .014.683.954.954 0 0 0 .184.41.65.65 0 0 0 .28.199.95.95 0 0 0 .315.055c.246 0 .467-.069.663-.206.196-.14.362-.335.499-.58.141-.251.25-.54.328-.869.082-.328.13-.683.143-1.066a8.14 8.14 0 0 0-.088-1.764 4.92 4.92 0 0 0-.465-1.45 3.373 3.373 0 0 0-.841-1.072 3.498 3.498 0 0 0-1.23-.677c-.479-.155-1.026-.232-1.641-.232-.565 0-1.087.086-1.566.26a4.044 4.044 0 0 0-1.285.751 4.715 4.715 0 0 0-.977 1.17c-.27.45-.481.958-.636 1.524-.15.56-.24 1.162-.267 1.804a8.23 8.23 0 0 0 .103 1.846c.105.556.273 1.048.506 1.476.232.429.524.789.875 1.08.355.297.765.52 1.23.67.47.15.99.226 1.559.226.4 0 .807-.045 1.217-.137a4.11 4.11 0 0 0 1.046-.362l.26.91c-.32.204-.718.357-1.197.457-.478.1-.93.15-1.353.15a6.53 6.53 0 0 1-1.942-.273 4.787 4.787 0 0 1-1.552-.806 4.492 4.492 0 0 1-1.114-1.292 5.959 5.959 0 0 1-.656-1.757 8.787 8.787 0 0 1-.164-2.188c.032-.747.146-1.449.342-2.105a7.09 7.09 0 0 1 .806-1.798c.347-.538.757-1 1.23-1.388a5.292 5.292 0 0 1 1.614-.902 5.842 5.842 0 0 1 1.948-.315c.711 0 1.354.094 1.928.28a4.524 4.524 0 0 1 2.598 2.105c.287.507.496 1.079.629 1.717.132.633.182 1.324.15 2.071Zm-6.952.65a3.88 3.88 0 0 0-.007.827c.032.241.089.444.17.608.087.164.2.29.336.376.137.087.296.13.478.13a.92.92 0 0 0 .363-.082c.132-.06.262-.153.39-.28.127-.128.248-.296.362-.506.113-.214.21-.478.287-.793l.52.595c-.106.355-.238.67-.397.943-.16.269-.34.495-.54.677a2.29 2.29 0 0 1-.65.41 1.968 1.968 0 0 1-.724.137c-.333 0-.63-.073-.889-.219a1.766 1.766 0 0 1-.629-.615 2.799 2.799 0 0 1-.349-.957 4.66 4.66 0 0 1-.04-1.251c.045-.47.132-.905.26-1.306.131-.401.293-.759.485-1.073.195-.315.417-.581.663-.8.246-.223.51-.392.793-.506.287-.118.58-.178.881-.178.515 0 .919.073 1.21.22.292.145.568.316.828.512l-.643.82a2.286 2.286 0 0 0-.52-.348c-.21-.11-.46-.165-.752-.165-.26 0-.496.06-.71.178-.21.119-.395.299-.554.54-.16.237-.294.531-.404.882a6.21 6.21 0 0 0-.218 1.224Zm13.24 1.374V2.5h1.655V13h-1.497l-.157-1.531Zm-4.812-2.085V9.24c0-.56.066-1.07.199-1.531.132-.465.323-.864.574-1.196.25-.338.556-.595.916-.773.36-.182.765-.273 1.216-.273.447 0 .84.086 1.176.26.338.173.625.421.862.745.237.319.426.701.567 1.148.141.442.242.934.3 1.477v.458a7.4 7.4 0 0 1-.3 1.449c-.141.437-.33.816-.567 1.135a2.452 2.452 0 0 1-.868.738c-.338.173-.732.26-1.183.26-.447 0-.85-.094-1.21-.28a2.673 2.673 0 0 1-.91-.787 3.699 3.699 0 0 1-.573-1.19 5.405 5.405 0 0 1-.199-1.496Zm1.648-.144v.144c0 .337.03.652.089.943.063.292.161.55.293.773.133.218.304.392.513.52.214.122.47.184.766.184.373 0 .681-.082.923-.246a1.68 1.68 0 0 0 .567-.663c.141-.283.237-.598.287-.944V8.714a3.023 3.023 0 0 0-.17-.752 2.013 2.013 0 0 0-.336-.608 1.41 1.41 0 0 0-.526-.41c-.205-.1-.449-.151-.732-.151-.3 0-.556.064-.765.191-.21.128-.383.303-.52.527-.132.223-.23.483-.294.779a4.507 4.507 0 0 0-.095.95Zm10.082 3.897a3.944 3.944 0 0 1-1.483-.267 3.275 3.275 0 0 1-1.121-.759 3.364 3.364 0 0 1-.704-1.141 3.999 3.999 0 0 1-.246-1.415V9.28c0-.579.084-1.103.253-1.572.168-.47.403-.87.704-1.203.3-.337.656-.595 1.066-.773.41-.177.855-.266 1.333-.266.529 0 .991.089 1.388.266.396.178.724.429.984.752.265.32.46.7.588 1.142.132.442.198.93.198 1.463v.704H47.74V8.611h4.088v-.13a2.313 2.313 0 0 0-.177-.834 1.417 1.417 0 0 0-.486-.628c-.218-.16-.51-.24-.875-.24-.273 0-.517.06-.731.178-.21.114-.385.28-.526.5a2.63 2.63 0 0 0-.329.792c-.072.305-.109.65-.109 1.032v.274c0 .323.043.624.13.902.091.273.223.513.396.718.174.205.383.367.63.485.245.114.526.171.84.171.397 0 .75-.08 1.06-.24.31-.159.578-.384.806-.676l.868.84c-.159.233-.366.457-.622.67-.255.21-.567.381-.936.513a3.727 3.727 0 0 1-1.272.199Zm6.836-1.443 1.812-6.09h1.709L58.282 13h-1.067l.116-1.306Zm-1.388-6.09 1.846 6.118.089 1.278h-1.066l-2.584-7.396h1.715ZM66.3 10.997a.825.825 0 0 0-.123-.444c-.083-.137-.24-.26-.472-.37-.228-.109-.565-.209-1.012-.3a8.735 8.735 0 0 1-1.08-.308 3.427 3.427 0 0 1-.834-.444 1.87 1.87 0 0 1-.54-.615 1.704 1.704 0 0 1-.191-.82c0-.301.066-.586.198-.855.132-.27.321-.506.567-.711.246-.205.545-.367.896-.485a3.746 3.746 0 0 1 1.19-.178c.619 0 1.15.105 1.592.314.447.205.788.486 1.025.841.237.351.356.747.356 1.19h-1.648c0-.196-.05-.379-.15-.547a1.048 1.048 0 0 0-.438-.417c-.195-.11-.442-.164-.738-.164-.282 0-.517.045-.704.136a.964.964 0 0 0-.41.342.873.873 0 0 0-.062.8.79.79 0 0 0 .246.267c.114.077.27.15.465.218.2.069.451.135.752.199.565.118 1.05.27 1.456.458.41.182.725.419.944.71.219.288.328.652.328 1.094 0 .328-.07.63-.212.902a2.046 2.046 0 0 1-.602.705 3.021 3.021 0 0 1-.95.458 4.28 4.28 0 0 1-1.23.164c-.67 0-1.238-.119-1.702-.356-.465-.241-.819-.549-1.06-.923a2.185 2.185 0 0 1-.355-1.175h1.592c.019.305.103.549.253.731.155.178.347.308.574.39.233.077.472.116.718.116.296 0 .545-.039.745-.116.2-.082.353-.192.458-.328a.783.783 0 0 0 .158-.479Zm6.726-5.393v1.203h-4.17V5.604h4.17Zm-2.967-1.812h1.648v7.164c0 .228.031.403.095.526a.512.512 0 0 0 .28.24c.119.04.258.061.418.061.113 0 .223-.007.328-.02a3.29 3.29 0 0 0 .252-.041l.007 1.258a4.205 4.205 0 0 1-.478.109 3.515 3.515 0 0 1-.615.048c-.379 0-.714-.066-1.005-.199a1.48 1.48 0 0 1-.684-.663c-.164-.305-.246-.71-.246-1.216V3.792Zm8.969 7.465V5.604h1.654V13h-1.559l-.096-1.743Zm.232-1.538.554-.014c0 .497-.055.955-.164 1.374-.11.415-.278.777-.506 1.087-.228.305-.52.545-.875.718-.356.168-.782.253-1.279.253-.36 0-.69-.053-.99-.158-.302-.104-.561-.266-.78-.485a2.208 2.208 0 0 1-.5-.854c-.118-.351-.177-.77-.177-1.258V5.604h1.648v4.792c0 .268.031.494.095.676.064.178.15.322.26.43.11.11.237.188.383.233.146.046.3.069.465.069.47 0 .838-.091 1.107-.274.274-.187.467-.437.581-.752.119-.314.178-.667.178-1.06Zm7.902 1.75V2.5h1.654V13H87.32l-.157-1.531Zm-4.813-2.085V9.24c0-.56.067-1.07.199-1.531.132-.465.323-.864.574-1.196.25-.338.556-.595.916-.773.36-.182.766-.273 1.217-.273.446 0 .838.086 1.176.26.337.173.624.421.86.745.238.319.427.701.568 1.148.142.442.242.934.301 1.477v.458a7.4 7.4 0 0 1-.3 1.449c-.142.437-.331.816-.568 1.135a2.453 2.453 0 0 1-.868.738c-.338.173-.732.26-1.183.26-.447 0-.85-.094-1.21-.28a2.673 2.673 0 0 1-.909-.787 3.699 3.699 0 0 1-.574-1.19 5.405 5.405 0 0 1-.198-1.496Zm1.648-.144v.144c0 .337.03.652.089.943.064.292.162.55.294.773.132.218.303.392.513.52.214.122.469.184.765.184.374 0 .681-.082.923-.246a1.68 1.68 0 0 0 .567-.663c.142-.283.237-.598.288-.944V8.714a3.023 3.023 0 0 0-.171-.752 2.013 2.013 0 0 0-.335-.608 1.41 1.41 0 0 0-.527-.41c-.205-.1-.449-.151-.731-.151-.301 0-.556.064-.766.191-.21.128-.383.303-.52.527-.132.223-.23.483-.293.779a4.507 4.507 0 0 0-.096.95Zm8.586-3.636V13h-1.655V5.604h1.655Zm-1.764-1.942c0-.25.082-.458.246-.622.169-.169.401-.253.697-.253.292 0 .522.084.69.253a.831.831 0 0 1 .254.622.823.823 0 0 1-.253.615c-.169.164-.399.246-.69.246-.297 0-.53-.082-.698-.246a.835.835 0 0 1-.246-.615Zm3.534 5.722v-.157c0-.534.077-1.028.232-1.484.155-.46.379-.859.67-1.196a3.024 3.024 0 0 1 1.08-.793 3.516 3.516 0 0 1 1.45-.287c.542 0 1.025.096 1.449.287.428.187.79.451 1.087.793.296.337.521.736.676 1.196.155.456.233.95.233 1.484v.157c0 .533-.078 1.027-.233 1.483-.155.456-.38.855-.676 1.196a3.145 3.145 0 0 1-1.08.793 3.54 3.54 0 0 1-1.443.28 3.607 3.607 0 0 1-1.456-.28 3.136 3.136 0 0 1-1.08-.793 3.55 3.55 0 0 1-.677-1.196 4.582 4.582 0 0 1-.232-1.483ZM96 9.227v.157c0 .332.034.647.103.943.068.296.175.556.321.78.146.223.333.398.56.526.229.127.5.191.814.191.305 0 .57-.064.793-.191.228-.128.415-.303.56-.527.147-.223.254-.483.322-.779.073-.296.11-.61.11-.943v-.157c0-.329-.037-.638-.11-.93a2.389 2.389 0 0 0-.328-.786 1.569 1.569 0 0 0-.56-.533 1.542 1.542 0 0 0-.8-.199c-.31 0-.58.066-.807.199a1.587 1.587 0 0 0-.554.533c-.146.228-.253.49-.321.786a4.062 4.062 0 0 0-.103.93Zm6.959 2.953c0-.255.087-.47.26-.643.173-.178.408-.267.704-.267.301 0 .535.09.704.267.173.173.26.387.26.643 0 .255-.087.47-.26.642-.169.173-.403.26-.704.26-.296 0-.531-.087-.704-.26a.874.874 0 0 1-.26-.642Zm7.13-.356c.269 0 .51-.052.724-.157.219-.11.394-.26.527-.451.136-.192.212-.413.225-.663h1.552c-.009.478-.15.913-.424 1.305a2.939 2.939 0 0 1-1.087.937c-.451.228-.95.342-1.497.342-.565 0-1.057-.096-1.476-.287a2.914 2.914 0 0 1-1.046-.807 3.546 3.546 0 0 1-.629-1.183 4.871 4.871 0 0 1-.205-1.435v-.24c0-.51.068-.988.205-1.435.141-.451.351-.848.629-1.19a2.847 2.847 0 0 1 1.046-.8c.419-.195.909-.293 1.469-.293.593 0 1.112.118 1.559.355.447.233.797.559 1.053.978.259.415.394.898.403 1.449h-1.552a1.644 1.644 0 0 0-.205-.738 1.35 1.35 0 0 0-.506-.533 1.44 1.44 0 0 0-.772-.199c-.333 0-.609.069-.827.205-.219.133-.39.315-.513.547a2.676 2.676 0 0 0-.267.773c-.05.282-.075.576-.075.882v.239c0 .305.025.601.075.888.051.288.137.545.26.773.128.223.301.403.52.54.218.132.496.198.834.198Zm4.258-2.44v-.157c0-.534.078-1.028.233-1.484a3.52 3.52 0 0 1 .67-1.196 3.02 3.02 0 0 1 1.08-.793 3.513 3.513 0 0 1 1.449-.287c.542 0 1.025.096 1.449.287a3.01 3.01 0 0 1 1.087.793c.296.337.522.736.677 1.196.155.456.232.95.232 1.484v.157c0 .533-.077 1.027-.232 1.483a3.555 3.555 0 0 1-.677 1.196 3.132 3.132 0 0 1-1.08.793c-.424.187-.905.28-1.442.28a3.611 3.611 0 0 1-1.457-.28 3.15 3.15 0 0 1-1.08-.793 3.553 3.553 0 0 1-.676-1.196 4.579 4.579 0 0 1-.233-1.483Zm1.648-.157v.157c0 .332.034.647.102.943.069.296.176.556.321.78.146.223.333.398.561.526.228.127.499.191.814.191.305 0 .569-.064.792-.191a1.59 1.59 0 0 0 .561-.527c.146-.223.253-.483.321-.779.073-.296.11-.61.11-.943v-.157c0-.329-.037-.638-.11-.93a2.368 2.368 0 0 0-.328-.786 1.567 1.567 0 0 0-.56-.533 1.545 1.545 0 0 0-.8-.199c-.31 0-.579.066-.807.199a1.592 1.592 0 0 0-.554.533c-.145.228-.252.49-.321.786a4.085 4.085 0 0 0-.102.93Zm8.537-2.12V13h-1.647V5.604h1.552l.095 1.503Zm-.266 1.921-.561-.007c0-.51.064-.982.192-1.415.127-.433.314-.808.56-1.127.246-.324.552-.572.916-.746.369-.177.796-.266 1.279-.266.337 0 .644.05.922.15.283.096.527.249.732.458.21.21.369.479.478.807.114.328.171.724.171 1.19V13h-1.647V8.215c0-.36-.055-.643-.164-.848a.912.912 0 0 0-.458-.437 1.66 1.66 0 0 0-.704-.137c-.31 0-.575.06-.793.178-.214.118-.39.28-.527.485a2.171 2.171 0 0 0-.3.711 3.712 3.712 0 0 0-.096.861Zm4.587-.437-.773.17c0-.446.062-.867.185-1.264.127-.401.312-.752.554-1.053.246-.305.549-.544.909-.717.36-.174.772-.26 1.237-.26.378 0 .716.052 1.012.157.301.1.556.26.765.479.21.218.37.503.479.854.109.346.164.766.164 1.258V13h-1.654V8.208c0-.374-.055-.663-.164-.868a.853.853 0 0 0-.452-.424 1.813 1.813 0 0 0-.704-.123c-.255 0-.48.048-.676.144a1.339 1.339 0 0 0-.486.39 1.752 1.752 0 0 0-.301.567 2.462 2.462 0 0 0-.095.697Z" fill="#2196F3"/></svg>